<svg xmlns="http://www.w3.org/2000/svg" viewBox="0 0 800 600">
<defs><linearGradient id="g" x1="0" y1="0" x2="0" y2="1">
<stop offset="0" stop-color="#1a1c1f"/><stop offset="1" stop-color="#0f1113"/></linearGradient></defs>
<rect width="800" height="600" fill="url(#g)"/>
<g stroke="#b4601c" stroke-width="1" opacity="0.10">
<line x1="0" y1="0" x2="0" y2="600"/><line x1="40" y1="0" x2="40" y2="600"/><line x1="80" y1="0" x2="80" y2="600"/><line x1="120" y1="0" x2="120" y2="600"/><line x1="160" y1="0" x2="160" y2="600"/><line x1="200" y1="0" x2="200" y2="600"/><line x1="240" y1="0" x2="240" y2="600"/><line x1="280" y1="0" x2="280" y2="600"/><line x1="320" y1="0" x2="320" y2="600"/><line x1="360" y1="0" x2="360" y2="600"/><line x1="400" y1="0" x2="400" y2="600"/><line x1="440" y1="0" x2="440" y2="600"/><line x1="480" y1="0" x2="480" y2="600"/><line x1="520" y1="0" x2="520" y2="600"/><line x1="560" y1="0" x2="560" y2="600"/><line x1="600" y1="0" x2="600" y2="600"/><line x1="640" y1="0" x2="640" y2="600"/><line x1="680" y1="0" x2="680" y2="600"/><line x1="720" y1="0" x2="720" y2="600"/><line x1="760" y1="0" x2="760" y2="600"/><line x1="800" y1="0" x2="800" y2="600"/>
</g>
<g transform="translate(400,250)" fill="none" stroke="#d98a44" stroke-width="9" stroke-linecap="round" stroke-linejoin="round">
<rect x="-90" y="-70" width="60" height="140" rx="10"/><rect x="-10" y="-70" width="60" height="140" rx="10"/><rect x="70" y="-70" width="40" height="140" rx="10"/><line x1="-90" y1="-40" x2="-30" y2="-40"/><line x1="-10" y1="-40" x2="50" y2="-40"/>
</g>
<rect x="0" y="470" width="800" height="130" fill="#f3ede1"/>
<rect x="0" y="470" width="800" height="6" fill="#b4601c"/>
<text x="48" y="525" font-family="Georgia,serif" font-size="44" font-weight="700" fill="#1a1c1f">UBC — Used Beverage Cans</text>
<text x="48" y="565" font-family="Arial,sans-serif" font-size="22" fill="#b4601c" letter-spacing="2">ALUMINIUM</text>
</svg>